Coordinates
version=1
nRows=65
nColumns=12
inDegrees=yes

Units are S.I. units (second, meters, Newtons, ...)
Angles are in degrees

endheader
time	SC_y	SC_z	SC_x	AC_y	AC_z	AC_x	GH_y	GH_z	GH_yy	EL_x	PS_y
       0.0              -55.47          27.98          50.28          61.81         -12.64          9.029         -2.495          70.54           37.8          109.7          114.9
    0.0275              -55.46          27.97          50.28          61.81         -12.64          9.029         -2.515          70.53          37.81          109.7          114.9
   0.05499              -55.46          27.97          50.29          61.81         -12.64          9.029         -2.536          70.52          37.81          109.7          114.9
   0.08249              -55.46          27.97          50.29          61.81         -12.64           9.03         -2.559          70.51          37.82          109.6          115.0
      0.11              -55.46          27.97          50.29          61.81         -12.64           9.03         -2.583          70.49          37.82          109.6          115.0
    0.1375              -55.45          27.96           50.3          61.81         -12.64           9.03         -2.609          70.48          37.83          109.6          115.0
     0.165              -55.45          27.96           50.3          61.81         -12.64           9.03         -2.636          70.47          37.84          109.6          115.0
    0.1925              -55.45          27.96          50.31          61.81         -12.64          9.031         -2.666          70.45          37.84          109.6          115.0
      0.22              -55.45          27.96          50.31          61.81         -12.64          9.031         -2.697          70.43          37.85          109.6          115.0
    0.2475              -55.44          27.95          50.32          61.81         -12.64          9.031         -2.731          70.42          37.86          109.6          115.0
     0.275              -55.44          27.95          50.33          61.81         -12.64          9.031         -2.767           70.4          37.87          109.6          115.0
    0.3025              -55.43          27.94          50.33          61.81         -12.64          9.032         -2.806          70.38          37.88          109.6          115.0
      0.33              -55.43          27.94          50.34          61.81         -12.64          9.032         -2.848          70.36          37.89          109.6          115.0
    0.3574              -55.42          27.93          50.35          61.81         -12.64          9.033         -2.893          70.33           37.9          109.5          115.0
    0.3849              -55.42          27.93          50.36           61.8         -12.64          9.033         -2.942          70.31          37.91          109.5          115.0
    0.4124              -55.41          27.92          50.37           61.8         -12.64          9.033         -2.995          70.28          37.92          109.5          115.0
    0.4399              -55.41          27.92          50.38           61.8         -12.64          9.034         -3.053          70.25          37.94          109.5          115.0
    0.4674               -55.4          27.91          50.39           61.8         -12.64          9.035         -3.116          70.22          37.95          109.5          115.0
    0.4949              -55.39           27.9           50.4           61.8         -12.63          9.035         -3.185          70.19          37.97          109.4          115.0
    0.5224              -55.38           27.9          50.42           61.8         -12.63          9.036          -3.26          70.15          37.99          109.4          115.0
    0.5499              -55.38          27.89          50.43           61.8         -12.63          9.037         -3.343          70.11          38.01          109.4          115.0
    0.5774              -55.37          27.88          50.45           61.8         -12.63          9.037         -3.434          70.06          38.03          109.4          115.1
    0.6049              -55.35          27.87          50.47           61.8         -12.63          9.038         -3.535          70.01          38.06          109.3          115.1
    0.6324              -55.34          27.86          50.49          61.79         -12.63          9.039         -3.646          69.95          38.09          109.3          115.1
    0.6599              -55.33          27.84          50.51          61.79         -12.63           9.04          -3.77          69.89          38.12          109.3          115.1
    0.6874              -55.31          27.83          50.53          61.79         -12.63          9.041         -3.908          69.82          38.15          109.2          115.1
    0.7149               -55.3          27.81          50.56          61.79         -12.63          9.043         -4.063          69.74          38.19          109.2          115.1
    0.7424              -55.28          27.79          50.59          61.78         -12.63          9.044         -4.237          69.65          38.23          109.1          115.1
    0.7699              -55.26          27.77          50.63          61.78         -12.63          9.046         -4.434          69.55          38.28          109.0          115.2
    0.7974              -55.23          27.75          50.67          61.78         -12.63          9.048         -4.657          69.44          38.34          109.0          115.2
    0.8249               -55.2          27.72          50.72          61.77         -12.62           9.05         -4.912          69.31           38.4          108.9          115.2
    0.8524              -55.17          27.69          50.77          61.77         -12.62          9.053         -5.205          69.16          38.47          108.8          115.3
    0.8799              -55.14          27.66          50.83          61.76         -12.62          9.056         -5.542          68.98          38.55          108.7          115.3
    0.9074              -55.09          27.62           50.9          61.76         -12.62          9.059         -5.935          68.78          38.65          108.6          115.3
    0.9349              -55.04          27.57          50.99          61.75         -12.61          9.063         -6.394          68.55          38.77          108.4          115.4
    0.9624              -54.99          27.51          51.08          61.74         -12.61          9.068         -6.936          68.27           38.9          108.3          115.5
    0.9899              -54.92          27.44           51.2          61.73         -12.61          9.074         -7.579          67.94          39.06          108.0          115.5
     1.017              -54.83          27.36          51.34          61.72          -12.6          9.081         -8.351          67.55          39.25          107.8          115.6
     1.045              -54.73          27.26          51.51          61.71          -12.6          9.089         -9.284          67.08          39.48          107.5          115.7
     1.072              -54.61          27.14          51.72          61.69         -12.59          9.099         -10.42          66.49          39.76          107.1          115.9
       1.1              -54.45           27.0          51.97          61.67         -12.58          9.111         -11.83          65.78          40.11          106.7          116.0
     1.127              -54.26          26.81          52.29          61.64         -12.57          9.127         -13.59          64.88          40.54          106.1          116.3
     1.155              -54.02          26.58          52.69           61.6         -12.56          9.146          -15.8          63.75          41.09          105.4          116.5
     1.182              -53.72          26.29           53.2          61.56         -12.54          9.171          -18.6          62.32          41.79          104.5          116.8
      1.21              -53.33          25.91          53.85           61.5         -12.51          9.203          -22.2          60.49          42.68          103.4          117.3
     1.237              -52.83          25.42          54.69          61.43         -12.49          9.243         -26.82          58.13          43.82          101.9          117.8
     1.265              -52.19           24.8          55.76          61.34         -12.45          9.295         -32.71          55.13          45.28          100.1          118.5
     1.292              -51.39          24.03           57.1          61.22          -12.4           9.36         -40.12          51.35          47.11           97.7          119.4
      1.32              -50.41          23.08          58.74          61.08         -12.34           9.44         -49.15          46.74          49.34          94.82          120.4
     1.347              -49.27          21.98          60.64          60.92         -12.28          9.532         -59.62           41.4          51.93           91.5          121.7
     1.375              -48.04          20.79           62.7          60.74         -12.21          9.632         -70.96          35.62          54.74          87.89          123.0
     1.402              -46.81           19.6          64.75          60.56         -12.13          9.732          -82.3          29.84          57.54          84.28          124.3
      1.43              -45.68           18.5          66.65           60.4         -12.07          9.824         -92.77           24.5          60.13          80.96          125.6
     1.457               -44.7          17.55          68.29          60.25         -12.01          9.903         -101.8          19.89          62.37          78.08          126.6
     1.485              -43.89          16.77          69.64          60.14         -11.96          9.969         -109.2          16.11           64.2          75.73          127.5
     1.512              -43.25          16.16           70.7          60.04         -11.93          10.02         -115.1           13.1          65.66          73.85          128.2
      1.54              -42.75          15.67          71.54          59.97          -11.9          10.06         -119.7          10.75           66.8          72.38          128.8
     1.567              -42.36          15.29          72.19          59.92         -11.87          10.09         -123.3          8.913          67.69          71.24          129.2
     1.595              -42.06           15.0           72.7          59.87         -11.86          10.12         -126.1           7.48          68.39          70.35          129.5
     1.622              -41.82          14.77           73.1          59.84         -11.84          10.14         -128.3          6.353          68.93          69.64          129.8
      1.65              -41.63          14.58          73.42          59.81         -11.83          10.15         -130.1          5.458          69.37          69.09          130.0
     1.677              -41.48          14.44          73.68          59.79         -11.82          10.16         -131.5          4.741          69.72          68.64          130.1
     1.705              -41.35          14.32          73.88          59.77         -11.82          10.17         -132.6          4.159           70.0          68.28          130.3
     1.732              -41.25          14.22          74.05          59.76         -11.81          10.18         -133.6          3.683          70.23          67.98          130.4
      1.76              -41.17          14.14          74.19          59.74          -11.8          10.19         -134.3           3.29          70.42          67.73          130.5
